<?xml version="1.0" encoding="utf-8"?>
<!-- Uploaded to: SVG Repo, www.svgrepo.com, Generator: SVG Repo Mixer Tools -->
<svg width="800px" height="800px" viewBox="0 0 1024 1024" class="icon"  version="1.1" xmlns="http://www.w3.org/2000/svg"><path d="M639.9 327v16.2c35.5 5.5 68.1 22.1 94 48C766.2 423.5 784 466.4 784 512c0 45.6-17.8 88.5-50.1 120.8-25.9 25.9-58.5 42.4-94 48V697c90.5-13 160-90.9 160-185s-69.5-172-160-185z" fill="#E73B37" /><path d="M723.8 215.2v16.4c15 3.6 29.7 8.5 44 14.5 34.4 14.5 65.2 35.3 91.7 61.8s47.3 57.3 61.8 91.7C936.4 435.2 944 473 944 512c0 38.9-7.6 76.7-22.7 112.3-14.5 34.4-35.3 65.2-61.8 91.7s-57.3 47.3-91.7 61.8c-14.3 6.1-29 10.9-44 14.5v16.4C859.1 777.7 960 656.6 960 512S859.1 246.2 723.8 215.2zM277.5 386.8h16v250h-16z" fill="#E73B37" /><path d="M277.5 386.8v9.2h16v-9.2h-16z m0 241.2v8.8h16V628h-16z" fill="#39393A" /><path d="M616.4 458.4c-11-11.1-25.5-18.7-41.5-21.3V112l-297 240H64v320h214l296.9 240V586.9c36.1-5.8 63.8-37.3 63.8-74.9 0-20.9-8.5-39.9-22.3-53.6z m-85.6 361.4L305.6 637.7l-12.1-9.8v8.8h-16V628H108V396h169.5v-9.2h16v9.2l12.1-9.8 225.2-182.1v615.7z m74.3-265.6c-8.4 8.4-18.9 14.1-30.2 16.4V453.3c11.3 2.3 21.8 7.9 30.2 16.4 11.4 11.3 17.6 26.4 17.6 42.3 0 15.9-6.3 30.9-17.6 42.2z" fill="#39393A" /></svg>